<svg id="Layer_1" data-name="Layer 1" xmlns="http://www.w3.org/2000/svg" viewBox="0 0 160.64 105.11"><defs><style>.cls-1{fill:#15365e;}.cls-2{fill:#aeacac;}</style></defs><title>car-logo</title><path class="cls-1" d="M142.48,114.46h-.31c-.1-.1-.19-.28-.3-.29a8.32,8.32,0,0,1-7.58-8.65c.09-1.47-.41-1.75-1.79-1.75q-45.27.06-90.54,0c-2.19,0-2.3,0-2.26,2.16a8.46,8.46,0,0,1-8.21,8.24l-10.54,0c-.28,0-.64-.1-.77.31h-.31c-.08-.35-.36-.27-.61-.32a8.21,8.21,0,0,1-7.06-6.31c-.6-2.32-.28-4.78-.21-7.17a5.59,5.59,0,0,0-1.48-4.53A13.12,13.12,0,0,1,8.56,93c-.94-1.72-1.11-3.69-1.86-5.47v-26a2.77,2.77,0,0,0,.61-1.65,31.24,31.24,0,0,1,5.82-13.06c2.5-3.3,5.71-6,8.61-8.88.61-.62,1.07-.9-.26-1.31a13.45,13.45,0,0,1-7.26-5.06c-2.15-3.09-1.43-6.18,1.89-7.95A17.65,17.65,0,0,1,25,21.76c3.54.08,5.36,1.5,6.07,4,.21.78-.1,1.68.56,2.46.44-.39.87-.75,1.28-1.14,4.29-4.13,8.54-8.3,12.86-12.4C49,11.63,53,9.53,57.42,9.49c19.38-.2,38.77-.15,58.16-.07A18.25,18.25,0,0,1,128,14.61c3.72,3.43,7.3,7,10.94,10.56,1.08,1,2.18,2.07,3.29,3.12a2.37,2.37,0,0,0,.52-1.68,4.93,4.93,0,0,1,4-4.58,17.69,17.69,0,0,1,11.06,1.53c3.37,1.7,4.08,4.83,1.93,7.92a13.73,13.73,0,0,1-7.4,5.13c-1.1.35-.84.57-.26,1.14,2.17,2.11,4.37,4.2,6.46,6.39a30.43,30.43,0,0,1,8.66,20.59c.23,6.69.08,13.38,0,20.07,0,3.43-.55,6.91-2.72,9.57-2.44,3-2.81,6.17-2.53,9.7,0,.62,0,1.25,0,1.88.16,4.31-3.84,8.25-8.19,8.25l-10.54,0C143,114.15,142.62,114.05,142.48,114.46ZM32.34,39.1H141.63c-.34-.35-.53-.58-.74-.78Q132.34,30,123.81,21.71a14.15,14.15,0,0,0-10.25-4.13q-26.64,0-53.29,0a13.85,13.85,0,0,0-10,4Q41.62,30,33,38.41C32.81,38.58,32.65,38.77,32.34,39.1ZM87,63.77c-11.76,0-23.52,0-35.28,0-1.22,0-1.55.25-1.48,1.55a21.45,21.45,0,0,0,1.45,6.65c1.78,4.63,5.19,7.34,9.28,7.34q26,0,52.06,0a8,8,0,0,0,5.32-1.85c3.74-3.18,5-7.43,5.39-12.15.1-1.31-.25-1.55-1.47-1.55C110.5,63.78,98.74,63.77,87,63.77Zm0,21.75H56.28c-3.6,0-3.91.52-2.3,3.9.05.09.08.19.13.28,2,3.72,5.27,5.14,9.43,5.13,15.62-.07,31.24,0,46.85,0,.52,0,1-.06,1.57-.06a9.28,9.28,0,0,0,8.79-7.64c.24-1.15.07-1.62-1.32-1.62C108.62,85.54,97.81,85.52,87,85.52Zm-59.77-15c2.47,0,4.19.06,5.91,0a25.12,25.12,0,0,0,7.35-1.24c2.53-.91,3.14-2.75,1.69-5a12.65,12.65,0,0,0-2.12-2.5,47.18,47.18,0,0,0-12.65-8.14,13.2,13.2,0,0,0-5.47-1.58A9.22,9.22,0,0,0,19.29,70C22.14,70.9,25.08,70.4,27.23,70.54Zm119.13,0c1.4,0,3.28,0,5.16,0a9.24,9.24,0,0,0,8.8-12.11c-1.44-4.59-6.26-7.41-10.64-6a43.41,43.41,0,0,0-14.15,7.95,16.75,16.75,0,0,0-3.78,3.92c-1.36,2.21-.78,4,1.62,4.94a11.66,11.66,0,0,0,1.19.35C138.28,70.62,142.08,70.61,146.36,70.54Zm-20,24.26h1.83c5.53,0,11.06-.08,16.59.08A13.94,13.94,0,0,0,153,92.35c3.68-2.39,4.59-6.06,2.58-9.7a1.73,1.73,0,0,0-1.72-1c-5,0-10,0-15,0a1.72,1.72,0,0,0-1.51.58C133.78,86.33,130.22,90.41,126.41,94.8Zm-79.12-.2a1.7,1.7,0,0,0-.2-.38q-5.19-6-10.36-11.93a1.76,1.76,0,0,0-1.47-.68c-5.12,0-10.23,0-15.35,0-.48,0-.92,0-1.21.51-1.33,2.25-2,4.61-.64,7.05a11.11,11.11,0,0,0,9.53,5.56c6.15.3,12.32.06,18.48,0C46.46,94.77,46.89,94.92,47.29,94.6Z" transform="translate(-6.7 -9.35)"/><path class="cls-2" d="M31.49,114.2a2.28,2.28,0,0,1,0,.26H20.18c.13-.41.49-.31.77-.31Z" transform="translate(-6.7 -9.35)"/><path class="cls-2" d="M153.79,114.2a2.28,2.28,0,0,1,0,.26H142.48c.14-.41.49-.31.77-.31Z" transform="translate(-6.7 -9.35)"/></svg>