<svg id="Layer_1" data-name="Layer 1" xmlns="http://www.w3.org/2000/svg" viewBox="0 0 542.13 216.08"><defs><style>.cls-1{fill:none;}.cls-2{fill:#15365e;}.cls-3{fill:#e9e8e8;}</style></defs><title>cruise</title><path class="cls-1" d="M34.63,232.69H8.16q0-106.89-.06-213.78c0-2.05.67-2.22,2.38-2.22q268.67.06,537.32,0c2.14,0,2.42.53,2.42,2.51q-.11,55.62-.05,111.25c-1.42-1.61-3.23-1.86-5.3-1.86q-131,.06-262,0c-.8,0-1.61,0-2.41,0a3,3,0,0,0-2.81,2.62c-.75,3.54.69,5.3,4.35,5.3q131.73,0,263.47,0a5.42,5.42,0,0,0,4.66-1.94q0,47.82.05,95.65c0,2.06-.4,2.47-2.46,2.46-27.67-.08-55.34-.05-83-.05,0-.16,0-.32,0-.48a151.33,151.33,0,0,0,15-5.63c16-6.93,30.43-16.18,41.82-29.66,13-15.42,19.19-33.66,21.94-53.32.32-2.31-.06-3.25-2.81-3.23-20.05.14-40.09.07-60.14.07q-97.71,0-195.43-.08c-3.25,0-4,.94-3.85,4,.2,4.59.53,9.32-.29,13.79-2.34,12.69-13,21-26.05,21H8.86a108.77,108.77,0,0,0,9.57,28.47,109.53,109.53,0,0,0,16.19,24.62A2.48,2.48,0,0,0,34.63,232.69ZM404.89,124.91h65.53c3.26,0,3.27,0,2-3q-12.66-28.41-25.33-56.8Q437.59,44,428.1,22.79c-1.47-3.31-3.58-5-7.56-5q-33.07.25-66.13,0c-5.78-.05-7.72,3.48-8.13,7.54q-2.43,24.15-4.81,48.3t-4.82,48.29c-.22,2.18.13,3.07,2.72,3C361.21,124.86,383.05,124.91,404.89,124.91ZM242.76,89.51c-29.77,0-59.55.16-89.32-.12-7.06-.07-14,4.78-13.82,13.71.29,14.93.15,29.87,0,44.81,0,2.62.78,3,3.16,3q66-.12,132-.06a9.59,9.59,0,0,1,1.2,0c1.3.18,1.75-.32,1.7-1.66-.1-2.7-.06-5.41,0-8.12a2.54,2.54,0,0,0-1-2.3c-3.27-2.56-3.31-6.06-2.17-9.5,1.22-3.67,4.33-4.45,8-4.43,15.54.09,31.07,0,46.61,0,4.37,0,4.18,0,4.56-4.38q1.2-13.89,2.78-27.74c.29-2.49.1-3.37-2.83-3.36C303.32,89.56,273,89.51,242.76,89.51Zm-64.49,65H139.78q-29.18,0-58.35,0c-6,0-9.91,3.82-10.05,9.87-.06,2.51.2,5-.06,7.51-.31,2.87.57,3.64,3.53,3.63q89.93-.15,179.85-.07c11.57,0,19.92-6.68,22.68-17.83.65-2.62,0-3.17-2.56-3.17Q226.55,154.56,178.27,154.49ZM338.21,73.27H187.62c-8.86,0-9.19-1.14-9.21,9.15,0,3,.9,3.53,3.69,3.52q62.52-.14,125-.07c9.22,0,18.44,0,27.66,0,1.75,0,2.43-.32,2.48-2.27C337.36,80.25,337.86,76.89,338.21,73.27Z" transform="translate(-8.1 -16.66)"/><path class="cls-2" d="M550.17,134.63a5.42,5.42,0,0,1-4.66,1.94q-131.74-.06-263.47,0c-3.66,0-5.1-1.76-4.35-5.3a3,3,0,0,1,2.81-2.62c.8-.05,1.61,0,2.41,0q131,0,262,0c2.07,0,3.88.25,5.3,1.86Z" transform="translate(-8.1 -16.66)"/><path class="cls-3" d="M34.63,232.69a2.48,2.48,0,0,1,0-.47c1.1,0,2.19-.11,3.29-.11H461.45c1.1,0,2.2.06,3.3.1,0,.16,0,.32,0,.48Z" transform="translate(-8.1 -16.66)"/><path class="cls-2" d="M464.75,232.21c-1.1,0-2.2-.1-3.3-.1H37.91c-1.1,0-2.19.07-3.29.11A109.53,109.53,0,0,1,18.43,207.6a108.77,108.77,0,0,1-9.57-28.47H255c13.08,0,23.71-8.31,26.05-21,.82-4.47.49-9.2.29-13.79-.12-3,.6-4,3.85-4q97.73.16,195.43.08c20.05,0,40.09.07,60.14-.07,2.75,0,3.13.92,2.81,3.23-2.75,19.66-8.91,37.9-21.94,53.32-11.39,13.48-25.79,22.73-41.82,29.66A151.33,151.33,0,0,1,464.75,232.21Z" transform="translate(-8.1 -16.66)"/><path class="cls-2" d="M404.89,124.91c-21.84,0-43.68,0-65.52.07-2.59,0-2.94-.87-2.72-3q2.46-24.14,4.82-48.29t4.81-48.3c.41-4.06,2.35-7.59,8.13-7.54q33.06.28,66.13,0c4,0,6.09,1.68,7.56,5q9.45,21.2,18.95,42.36,12.68,28.39,25.33,56.8c1.31,3,1.3,3-2,3Z" transform="translate(-8.1 -16.66)"/><path class="cls-2" d="M242.76,89.51c30.28,0,60.56,0,90.83-.08,2.93,0,3.12.87,2.83,3.36q-1.6,13.84-2.78,27.74c-.38,4.35-.19,4.37-4.56,4.38-15.54,0-31.07,0-46.61,0-3.63,0-6.74.76-8,4.43-1.14,3.44-1.1,6.94,2.17,9.5a2.54,2.54,0,0,1,1,2.3c-.05,2.71-.09,5.42,0,8.12,0,1.34-.4,1.84-1.7,1.66a9.59,9.59,0,0,0-1.2,0q-66,0-132,.06c-2.38,0-3.19-.4-3.16-3,.14-14.94.28-29.88,0-44.81-.17-8.93,6.76-13.78,13.82-13.71C183.21,89.67,213,89.51,242.76,89.51Zm-46.5,13.74a8.61,8.61,0,1,0,.1,17.22,8.61,8.61,0,1,0-.1-17.22Zm20.6,8.53a8.47,8.47,0,0,0,8.69,8.69,8.61,8.61,0,1,0-.17-17.22A8.46,8.46,0,0,0,216.86,111.78Zm58.3,0a8.49,8.49,0,0,0,8.33,8.75,8.62,8.62,0,1,0,.54-17.23A8.42,8.42,0,0,0,275.16,111.73Zm-11.91.18a8.55,8.55,0,0,0-8.44-8.66,8.68,8.68,0,0,0-8.91,8.53,8.8,8.8,0,0,0,8.49,8.73A8.66,8.66,0,0,0,263.25,111.91Zm0,26.47a8.54,8.54,0,0,0-8.67-8.72,8.63,8.63,0,1,0,.06,17.25A8.59,8.59,0,0,0,263.25,138.38Zm49.62-35.14a8.62,8.62,0,1,0,8.71,8.73A8.71,8.71,0,0,0,312.87,103.24Zm-96,35a8.51,8.51,0,0,0,8.76,8.64,8.62,8.62,0,0,0,0-17.24A8.48,8.48,0,0,0,216.85,138.26Zm-49.65-8.6a8.61,8.61,0,1,0-.12,17.22,8.61,8.61,0,1,0,.12-17.22Zm37.72,8.47a8.46,8.46,0,0,0-8.59-8.45,8.61,8.61,0,1,0,0,17.21A8.5,8.5,0,0,0,204.92,138.13Zm-37.7-34.88a8.61,8.61,0,0,0-.16,17.22,8.61,8.61,0,1,0,.16-17.22Z" transform="translate(-8.1 -16.66)"/><path class="cls-2" d="M178.27,154.49q48.29,0,96.55-.05c2.59,0,3.21.55,2.56,3.17-2.76,11.15-11.11,17.82-22.68,17.83q-89.92,0-179.85.07c-3,0-3.84-.76-3.53-3.63.26-2.47,0-5,.06-7.51.14-6.05,4-9.87,10.05-9.87q29.17,0,58.35,0Zm-31.89,16.07H156c2.33,0,4.31-.62,4.39-3.38s-1.92-3.49-4.24-3.5c-6.51,0-13,0-19.55,0-2.43,0-4.35,1-4.29,3.52s2,3.43,4.44,3.39C140,170.52,143.17,170.56,146.38,170.56Zm93.13,0c3.5,0,7,0,10.49,0,2.32,0,4-1.12,4-3.47s-1.76-3.41-4.08-3.41c-6.7,0-13.39,0-20.08,0-2.25,0-4,.88-4,3.45s1.76,3.38,4,3.41C233.12,170.59,236.31,170.56,239.51,170.56Zm-46.31-6.89h0c-3.4,0-6.8,0-10.2,0-2.25,0-4,1-3.94,3.49.05,2.3,1.68,3.33,3.82,3.35q10.2.08,20.39,0c2.28,0,4-1,3.93-3.52s-1.83-3.34-4.11-3.35Zm-93.57,0H90c-2.32,0-4.32.61-4.36,3.39s1.9,3.49,4.25,3.5h19.54c2.4,0,4.27-.92,4.24-3.54,0-2.46-1.86-3.34-4.13-3.35Z" transform="translate(-8.1 -16.66)"/><path class="cls-2" d="M338.21,73.27c-.35,3.62-.85,7-.93,10.35,0,1.95-.73,2.29-2.48,2.27-9.22-.07-18.44,0-27.66,0q-62.52,0-125,.07c-2.79,0-3.69-.53-3.69-3.52,0-10.29.35-9.15,9.21-9.15H338.21Z" transform="translate(-8.1 -16.66)"/></svg>