<svg id="Layer_1" data-name="Layer 1" xmlns="http://www.w3.org/2000/svg" viewBox="0 0 115.44 108.21"><defs><style>.cls-1{fill:#15365e;}</style></defs><title>flight-logo</title><path class="cls-1" d="M115.68,26.88c-.43.22-.32.7-.42,1a9.53,9.53,0,0,1-5.1,6.14C102.4,38,94.66,41.88,86.9,45.76a1.58,1.58,0,0,0-1.09,1.48c-.25,3.87-.56,7.73-.85,11.59L83.82,74.36c-.27,3.75-.51,7.49-.78,11.24-.37,5.09-.76,10.19-1.13,15.29,0,.52,0,1-.07,1.55-.19,3.38-2.58,4.85-5.29,5.94a5.51,5.51,0,0,1-6.19-1.63c-1.27-1.39-1.37-3.18-1.69-4.87q-2.78-14.72-5.48-29.43c-.74-4-1.51-8-2.19-12-.14-.88-.37-.86-1-.51Q45.32,67.77,30.63,75.5a1.55,1.55,0,0,0-.83,1.32q-1,6.44-2,12.87A3.16,3.16,0,0,1,26,92.22c-1,.51-2,1.08-3.05,1.61-2.25,1.17-4.17.32-4.69-2.13-1.08-5.09-2.16-10.18-3.16-15.28a9.09,9.09,0,0,0-2.57-5c-3.8-3.72-7.39-7.65-11.1-11.46C.93,59.36.74,58.63.24,58.08v-1a5.29,5.29,0,0,1,3.1-2.87c.65-.29,1.28-.64,1.9-1a3.28,3.28,0,0,1,3.28-.06c3.86,1.85,7.75,3.62,11.61,5.48a1.91,1.91,0,0,0,2,0q14.13-7.51,28.28-15c.51-.26,1-.56,1.31-.74-2.61-2.7-5.11-5.39-7.72-8Q32,23,20,11.1a5.55,5.55,0,0,1-.73-7.57c1.86-2.25,5.82-4.2,9.48-2C44.39,10.7,60.15,19.76,75.86,28.9a2.13,2.13,0,0,0,2.35.1Q90,23,102,17a9.62,9.62,0,0,1,13.11,5c.24.65.18,1.39.62,2Z" transform="translate(-0.24 -0.55)"/></svg>