<?xml version="1.0" encoding="utf-8"?>
<!-- Generator: Adobe Illustrator 23.0.6, SVG Export Plug-In . SVG Version: 6.00 Build 0)  -->
<svg version="1.1" id="Layer_1" xmlns="http://www.w3.org/2000/svg" xmlns:xlink="http://www.w3.org/1999/xlink" x="0px" y="0px"
	 viewBox="0 0 168.75 239.2" style="enable-background:new 0 0 168.75 239.2;" xml:space="preserve">
<style type="text/css">
	.st0{fill:#15365E;}
	.st1{fill:#F9F8F8;}
</style>
<path class="st0" d="M106.17,11c0.32,0.63,1,0.47,1.5,0.67c4.43,1.69,7.27,5.64,7.28,10.36c0.02,11.9,0.03,23.79,0,35.69
	c-0.02,6.07-4.86,10.95-10.92,10.97c-11.95,0.04-23.91,0.04-35.86,0c-5.98-0.02-10.86-4.87-10.88-10.82
	c-0.04-12.01-0.03-24.03,0-36.04c0.01-4.41,2.83-8.37,6.96-10.04c0.51-0.21,1.16-0.18,1.46-0.78C79.19,11,92.68,11,106.17,11z
	 M66.82,39.84c0,5.33-0.01,10.67,0.01,16c0.01,2.37,0.95,3.28,3.31,3.31c1,0.01,1.99,0.01,2.99,0c2.52-0.02,3.36-0.83,3.39-3.38
	c0.03-3.16,0.06-6.33-0.02-9.49c-0.03-1.21,0.29-1.6,1.55-1.58c5.39,0.07,10.79,0.08,16.18,0c1.31-0.02,1.53,0.45,1.51,1.61
	c-0.07,3.22-0.05,6.45-0.01,9.67c0.03,2.3,0.92,3.14,3.24,3.17c0.94,0.01,1.88,0.01,2.81,0c2.79-0.01,3.64-0.86,3.64-3.69
	c0.01-6.68,0-13.36,0-20.05c0-3.81,0.01-7.62-0.01-11.43c-0.01-2.53-0.84-3.34-3.38-3.39c-0.76-0.01-1.52,0-2.29,0
	c-3.4,0-4.03,0.63-4.03,3.96c0,3.05-0.04,6.1,0.02,9.14c0.02,1-0.29,1.28-1.28,1.27c-5.57-0.04-11.14-0.05-16.7,0
	c-1.05,0.01-1.25-0.36-1.23-1.31c0.05-3.28,0.04-6.56,0.01-9.85c-0.02-2.37-0.83-3.16-3.16-3.21c-1-0.02-1.99-0.01-2.99,0
	c-2.76,0.03-3.52,0.79-3.53,3.59C66.82,29.41,66.82,34.63,66.82,39.84z"/>
<path class="st1" d="M161.47,45.83c0.1,0,0.19,0,0.29,0c0,59.69,0,119.39,0,179.08l-0.14,0l-0.14,0c-0.02-0.41-0.05-0.82-0.05-1.23
	c0-58.82,0-117.64,0-176.45C161.42,46.77,161.45,46.3,161.47,45.83z"/>
<path class="st0" d="M161.47,45.83c-0.02,0.47-0.05,0.93-0.05,1.4c0,58.82,0,117.64,0,176.45c0,0.41,0.03,0.82,0.05,1.23
	c-0.49,3.69-3.44,6.33-7.15,6.33c-14.6,0.01-29.2,0.01-43.79-0.01c-0.7,0-1.63,0.44-1.56-1.06c0.41-10.08,0.09-20.16,0.17-30.24
	c0.02-2.57,0.02-5.13-1.3-7.51c-2.47-4.45-6.34-6.4-11.26-6.44c-6.98-0.06-13.95-0.06-20.93,0c-6.08,0.05-10.75,3.43-12.18,8.69
	c-0.39,1.42-0.41,2.9-0.41,4.36c-0.01,9.38,0,18.76,0,28.14c0,0.53-0.01,1.06,0.03,1.58c0.18,2.5,0.18,2.5-2.22,2.5
	c-14.19,0-28.37,0-42.56,0c-4.55,0-7.49-2.89-7.49-7.36c0-58.98,0.03-117.95-0.09-176.93c-0.01-3.91,3.21-7.66,7.49-7.57
	c10.08,0.22,20.17,0.09,30.25,0.04c1.25-0.01,1.54,0.32,1.52,1.54c-0.07,5.33-0.07,10.67-0.02,16c0.07,7.11,2.93,12.74,9.09,16.5
	c3.01,1.84,6.38,2.52,9.87,2.53c11.43,0.03,22.86,0.06,34.3,0c7.79-0.04,13.67-3.46,17.23-10.46c1.36-2.68,1.81-5.65,1.82-8.66
	c0.01-5.33,0.04-10.67-0.03-16c-0.01-1.15,0.3-1.46,1.45-1.45c10.26,0.05,20.52,0.01,30.78,0.04
	C158.32,39.47,161.15,42.11,161.47,45.83z M69.46,103.5C69.46,103.5,69.46,103.5,69.46,103.5c1.23,0.01,2.46,0.03,3.69,0
	c2.78-0.07,4.53-1.67,4.64-4.43c0.1-2.63,0.1-5.27,0-7.9c-0.09-2.46-1.59-4.14-4.02-4.29c-2.86-0.17-5.74-0.17-8.6-0.01
	c-2.39,0.13-3.95,1.88-4.02,4.27c-0.08,2.69-0.08,5.39,0.01,8.08c0.08,2.44,1.83,4.13,4.26,4.27
	C66.77,103.56,68.12,103.5,69.46,103.5z M111.09,95.26C111.09,95.26,111.09,95.26,111.09,95.26c0.01-1.29,0.04-2.58,0-3.87
	c-0.08-2.66-1.66-4.44-4.3-4.58c-2.69-0.14-5.39-0.12-8.08,0.01c-2.52,0.12-4.17,1.78-4.27,4.26c-0.11,2.75-0.12,5.51,0.02,8.25
	c0.12,2.46,1.89,4.09,4.36,4.16c2.63,0.07,5.27,0.08,7.91-0.01c2.54-0.08,4.23-1.82,4.35-4.36
	C111.14,97.83,111.09,96.54,111.09,95.26z M61.14,161.55C61.14,161.55,61.14,161.55,61.14,161.55c-0.01,1.29-0.04,2.57,0,3.86
	c0.08,2.7,1.62,4.43,4.3,4.56c2.68,0.12,5.38,0.12,8.07,0.01c2.57-0.11,4.15-1.65,4.27-4.2c0.13-2.68,0.12-5.38,0.02-8.06
	c-0.09-2.45-1.42-3.94-3.87-4.23c-3.02-0.35-6.07-0.37-9.09,0.03c-2.32,0.31-3.58,1.84-3.69,4.19
	C61.09,158.98,61.14,160.27,61.14,161.55z M111.1,161.92c0-1.17,0.01-2.35,0-3.52c-0.03-3.18-1.44-4.83-4.61-5.03
	c-2.51-0.16-5.05-0.17-7.56-0.01c-2.83,0.17-4.41,1.76-4.51,4.42c-0.1,2.63-0.1,5.28,0.01,7.91c0.11,2.57,1.67,4.16,4.22,4.28
	c2.69,0.12,5.4,0.12,8.09,0.01c2.68-0.11,4.27-1.85,4.35-4.54C111.12,164.27,111.09,163.1,111.1,161.92z M28,95.26
	c-0.01,0-0.01,0-0.02,0c0,1.29-0.04,2.58,0.01,3.86c0.1,2.73,1.69,4.31,4.43,4.37c2.52,0.05,5.03,0.05,7.55,0
	c2.73-0.05,4.51-1.79,4.59-4.51c0.07-2.51,0.07-5.03,0-7.55c-0.07-2.56-1.57-4.37-3.95-4.56c-2.97-0.24-5.97-0.28-8.93,0.03
	c-2.27,0.24-3.54,1.7-3.66,3.97C27.93,92.33,28,93.8,28,95.26z M144.25,95.27c0,0,0.01,0,0.01,0c0-1.29,0.03-2.58-0.01-3.86
	c-0.09-2.91-1.51-4.48-4.38-4.6c-2.57-0.11-5.15-0.11-7.72,0c-2.65,0.11-4.35,1.8-4.46,4.45c-0.11,2.63-0.09,5.27,0,7.9
	c0.09,2.46,1.8,4.23,4.21,4.32c2.75,0.1,5.5,0.1,8.25,0c2.43-0.09,3.97-1.72,4.09-4.17C144.3,97.96,144.25,96.61,144.25,95.27z
	 M144.25,161.68c0,0,0.01,0,0.01,0c0-1.23,0.02-2.46,0-3.68c-0.07-2.76-1.13-4.18-3.85-4.52c-2.95-0.38-5.96-0.37-8.91,0.01
	c-2.4,0.31-3.74,1.91-3.81,4.29c-0.08,2.57-0.09,5.15,0,7.72c0.09,2.66,1.63,4.35,4.2,4.47c2.74,0.13,5.5,0.14,8.24,0.01
	c2.63-0.13,4.01-1.64,4.13-4.25C144.3,164.37,144.25,163.03,144.25,161.68z M44.57,161.77c0-1.11,0.01-2.22,0-3.33
	c-0.03-3.17-1.63-4.97-4.74-5.1c-2.39-0.1-4.8-0.1-7.19-0.01c-3.16,0.13-4.63,1.73-4.67,4.89c-0.03,2.4-0.04,4.8,0,7.19
	c0.06,3,1.52,4.5,4.53,4.59c2.51,0.07,5.03,0.07,7.54,0c2.76-0.08,4.38-1.74,4.51-4.54C44.62,164.23,44.57,163,44.57,161.77z
	 M144.26,195c-0.03,0-0.05,0-0.08,0c0-1.58,0.08-3.16-0.02-4.74c-0.12-1.81-1.35-3.11-3.17-3.38c-3.08-0.47-6.19-0.34-9.27-0.11
	c-2.62,0.19-3.94,1.72-4.04,4.39c-0.1,2.57-0.07,5.15,0,7.73c0.07,2.37,1.42,3.93,3.8,4.3c2.9,0.46,5.84,0.41,8.74,0.06
	c2.92-0.35,3.97-1.74,4.04-4.73C144.29,197.34,144.26,196.17,144.26,195z M69.48,136.65C69.48,136.65,69.48,136.66,69.48,136.65
	c1.29,0.01,2.58,0.03,3.86,0c2.72-0.07,4.33-1.48,4.44-4.14c0.12-2.74,0.1-5.5-0.03-8.25c-0.12-2.44-1.88-4.11-4.3-4.17
	c-2.63-0.07-5.27-0.08-7.9,0c-2.57,0.08-4.31,1.79-4.38,4.32c-0.08,2.69-0.1,5.39,0,8.08c0.09,2.53,1.75,4.08,4.27,4.16
	C66.79,136.69,68.13,136.65,69.48,136.65z M28.02,195.07c-0.01,0-0.02,0-0.03,0c0,1.35-0.05,2.69,0.01,4.04
	c0.1,2.31,1.25,3.68,3.56,4.06c2.9,0.48,5.84,0.4,8.74,0.09c2.94-0.31,4.25-2,4.27-4.99c0.02-2.28,0.04-4.57-0.01-6.85
	c-0.06-2.78-1.34-4.45-3.94-4.66c-3.08-0.25-6.19-0.36-9.27,0.09c-2,0.29-3.2,1.63-3.31,3.65
	C27.95,192.03,28.02,193.55,28.02,195.07z M27.97,61.9C27.97,61.9,27.97,61.9,27.97,61.9c-0.01,1.23-0.03,2.46,0,3.69
	c0.08,3.01,1.53,4.54,4.51,4.62c2.51,0.07,5.03,0.06,7.55-0.01c2.72-0.08,4.43-1.78,4.52-4.53c0.08-2.57,0.09-5.15-0.01-7.72
	c-0.1-2.66-1.87-4.33-4.51-4.36c-2.52-0.03-5.03-0.03-7.55,0c-2.82,0.03-4.41,1.61-4.5,4.46C27.94,59.32,27.97,60.61,27.97,61.9z
	 M136.12,53.58C136.12,53.57,136.12,53.57,136.12,53.58c-1.29-0.01-2.58-0.03-3.86,0c-2.67,0.05-4.46,1.66-4.57,4.31
	c-0.1,2.63-0.1,5.27,0,7.9c0.1,2.64,1.84,4.35,4.44,4.42c2.69,0.07,5.39,0.08,8.07-0.03c2.44-0.1,3.93-1.59,4-3.99
	c0.09-2.86,0.09-5.74,0-8.6c-0.08-2.33-1.72-3.89-4.05-3.99C138.81,53.53,137.47,53.58,136.12,53.58z M36.26,136.65
	c0,0,0,0.01,0,0.01c1.23,0,2.46,0.02,3.68,0c2.84-0.06,4.51-1.58,4.61-4.37c0.09-2.57,0.09-5.15,0-7.72
	c-0.09-2.63-1.84-4.39-4.43-4.47c-2.63-0.08-5.27-0.1-7.89,0.01c-2.57,0.1-4.15,1.69-4.22,4.21c-0.08,2.8-0.08,5.61,0.01,8.42
	c0.08,2.37,1.65,3.83,4.03,3.92C33.45,136.69,34.85,136.65,36.26,136.65z M102.67,136.66C102.67,136.66,102.67,136.66,102.67,136.66
	c1.29,0.01,2.58,0.03,3.86,0c2.86-0.07,4.47-1.61,4.54-4.45c0.06-2.52,0.05-5.03,0-7.55c-0.06-2.74-1.79-4.51-4.51-4.57
	c-2.57-0.06-5.15-0.06-7.73,0c-2.46,0.06-4.25,1.68-4.37,4.11c-0.13,2.8-0.14,5.62-0.01,8.42c0.12,2.58,1.71,3.95,4.34,4.03
	C100.1,136.69,101.39,136.66,102.67,136.66z M135.96,136.66c1.34,0,2.69,0.03,4.03-0.01c2.59-0.08,4.15-1.55,4.23-4.11
	c0.08-2.69,0.08-5.38,0.01-8.07c-0.08-2.73-1.67-4.32-4.41-4.4c-2.51-0.07-5.03-0.06-7.54,0c-2.71,0.07-4.51,1.8-4.61,4.48
	c-0.09,2.57-0.09,5.15,0,7.72c0.1,2.74,1.72,4.29,4.43,4.37C133.39,136.69,134.68,136.66,135.96,136.66z"/>
</svg>
