<svg id="Layer_1" data-name="Layer 1" xmlns="http://www.w3.org/2000/svg" viewBox="0 0 621.73 599.08"><defs><style>.cls-1{fill:#15365e;}.cls-2{fill:#595655;}</style></defs><title>rental-iogo</title><path class="cls-1" d="M393.35,601.41h-2c-.32-.32-.59-.83-1-.94-17.11-4.84-25.07-15.24-25.07-32.86q0-90.48.1-181c0-4.15-1-5.26-5.22-5.24q-48,.27-96,0c-4.1,0-4.95,1.21-4.9,5,.2,16.5.09,33,.08,49.5q0,67.49,0,135c0,15.59-12.78,29-27.86,29.6q-55-.06-109.93-.1c-15.15,0-30.3.1-45.45.16-8.54-1.67-13.8-8.71-13.8-18.55q0-124.72,0-249.44a29,29,0,0,1,0-3.49c.28-2.44-.75-3.19-3.13-3.11-4.66.16-9.33,0-14,.05-9.48,0-19,.1-28.46.11a15.53,15.53,0,0,1-13.89-9.61c-2.82-7.05-.69-12.85,4.49-18Q152.29,153.65,297,8.57a22,22,0,0,1,30.69,0q142.37,143.2,285.4,285.73c4.19,4.19,8.48,8.2,10.24,14.1v5c-2.8,7.24-7.29,12.61-15.7,12.69-13.47.13-26.94.19-40.4-.2-4.5-.12-5.37,1.21-5.37,5.45q.2,122.1.1,244.21c0,2.66.1,5.33-.05,8-.48,9.07-6.34,15.94-14.38,17l-151.1-.13C395.34,600.42,394.08,600.12,393.35,601.41Z" transform="translate(-1.62 -2.33)"/><path class="cls-2" d="M231.51,600.52a5.36,5.36,0,0,0-.16.89h-155a1.75,1.75,0,0,1-.22-.83c15.15-.06,30.3-.16,45.45-.16Q176.54,600.43,231.51,600.52Z" transform="translate(-1.62 -2.33)"/><path class="cls-2" d="M547.55,600.55a2.77,2.77,0,0,1-.2.86h-154c.73-1.29,2-1,3.1-1Z" transform="translate(-1.62 -2.33)"/></svg>