<svg id="Layer_1" data-name="Layer 1" xmlns="http://www.w3.org/2000/svg" viewBox="0 0 178.3 242.76"><defs><style>.cls-1{fill:#f8f7f7;}.cls-2{fill:#15365e;}</style></defs><title>travel-logo</title><path class="cls-1" d="M188,108.24c0,26.36-5,44.1-15.3,60.16-16.81,26.3-40.53,40.47-72.28,40.33-20.56-.08-39.07-6.92-56.89-16.33-5.64-3-8.25-2.48-10.71,2.22s-1.3,8,4.08,10.79c17.41,8.94,35.41,15.64,55.22,17.39,23.11,2,44.28-2.77,63.47-15.69,36.88-24.84,53.93-72.7,44.22-115.48-6.55-28.84-23.08-50.42-48.32-65.51-5.61-3.35-10.1-2-12.1,3.55-1.78,5,1.38,7.2,5.05,9.42C173.17,56.44,187.49,82,188,108.24ZM87.33,267.06v-.49q26.74,0,53.49,0c5.2,0,7.49-2.72,7.62-8.78.14-6.46-2.47-10.11-7.55-10.09q-54.48.23-109,.56c-2.57,0-4.5.84-5.8,3.1-4.64,8.13-.49,15.67,8.73,15.69C52.35,267.09,69.84,267.06,87.33,267.06Zm57.5-213.81c-7.17,11.72-14.08,23.06-21,34.36-1.47,2.4.67,2.8,1.92,3.49a134.91,134.91,0,0,0,26.17,10.79c2.55.78,3.51.31,4-2.47a86.23,86.23,0,0,0,.92-19.9C156.06,69.63,153,60.68,144.83,53.25Zm-42.22,71c-1.53.12-2,1.2-2.65,2.19C97.35,130.7,94.88,135,92,139.12c-2,2.88-1.36,4.51,1.39,6.29a117.33,117.33,0,0,1,22.7,19.36c2,2.14,3,2.35,5.08.2a188.63,188.63,0,0,0,13.49-16c1.57-2.07,2.17-3.59-.87-5.38-9.86-5.83-19.49-12-29.21-18.09Zm-28,65.24c13.06-.3,24-6.38,34.41-13.73,2.52-1.77.92-2.93-.28-4.22a145.21,145.21,0,0,0-20.58-18c-2.7-2-3.86-1.49-5.47,1.25-4.79,8.15-10,16.08-14.8,24.19-1.59,2.65-5.45,5.89-4.1,7.94C65.85,190,70.67,189.36,74.64,189.51ZM152,114.56c.64-2.45-.9-2.53-1.85-2.81A139.58,139.58,0,0,1,119.94,99c-1.63-.93-2.58-.79-3.59.94-2.59,4.45-5.34,8.81-8.11,13.16-1,1.61-.84,2.59.85,3.62,10.22,6.23,20.38,12.55,30.58,18.81.91.56,2.17,1.73,3,.26A116,116,0,0,0,152,114.56Zm-59.22,4.86c0-1.42-.75-1.71-1.48-2.16-9.2-5.64-18.4-11.27-27.53-17-2.31-1.45-3.11-.36-4.14,1.52a174.5,174.5,0,0,0-9.13,20.43c-1,2.67.1,3,2.16,3.62a142.3,142.3,0,0,1,26.2,10.67c2.14,1.15,3.11.79,4.28-1.26,2.72-4.76,5.7-9.36,8.57-14C92.15,120.5,92.56,119.8,92.79,119.42ZM45.05,151.17c.3,10.24,1.73,19.28,7.22,27.29,1.76,2.58,2.73,2.72,4.41-.07q8.84-14.69,18-29.17c1.61-2.55.78-3.6-1.59-4.76a205.53,205.53,0,0,0-22.05-9c-3.61-1.28-4.52.32-4.85,3.11C45.66,143.07,45.37,147.54,45.05,151.17ZM108.77,93.5c0-1.47-1-1.9-1.77-2.48-7.74-5.77-15.19-11.87-21.52-19.21-1.62-1.88-2.67-1.09-4,.27a184.79,184.79,0,0,0-13,15.12c-1.87,2.36-1.45,3.56.94,5,6.27,3.73,12.44,7.63,18.67,11.43,3.36,2,6.74,6.22,10.17,5.39s4.49-6.12,6.72-9.37C106.41,97.59,107.61,95.41,108.77,93.5Zm19-45.75c-10.07.1-26.45,6.81-34.55,13.84-2.19,1.91-1.09,2.94.25,4.34A162.94,162.94,0,0,0,110.9,81.54c2.73,2.14,4.13,2.12,6-1.1,5-8.75,10.42-17.3,15.7-25.91,3.82-6.2,3.72-6.42-3.77-6.74ZM35.46,122.46c3.63,1.52,5-.68,6-4.27,1.08-3.8,3-7.38,4.3-11.12,1.73-4.79,7.42-9.67,5.63-13.63S43,87.62,38.71,84.51c-2.83-2.06-3.89-.89-5.07,1.61a80.91,80.91,0,0,0-7.74,25.56C24.77,121.62,24.85,121.63,35.46,122.46Zm97.89,64.94a10.64,10.64,0,0,0,1.23-.5,84,84,0,0,0,26.55-23.06c1.52-2,.55-2.92-1-3.89-3.95-2.45-8-4.79-11.83-7.39-2.35-1.6-3.55-1-5.11,1.17a164.66,164.66,0,0,1-10.48,13.33c-7.86,8.85-8,8.76-1.56,18.46C131.64,186.31,131.92,187.43,133.35,187.4Zm31.83-72.5c-2.29-.75-3,.54-3.76,2.58a132.92,132.92,0,0,1-9.5,21.87c-1,1.76-1.35,3.17.92,4.46q6.49,3.7,12.69,7.91c2.2,1.49,3,.26,3.76-1.36a80.3,80.3,0,0,0,7.35-24.21c1.23-9.88,1-9.91-8.91-10.89C166.9,115.18,166.08,115,165.18,114.9ZM77,61.51c-2.31-3.66-4.68-7.6-7.25-11.4-.53-.79-1.56.15-2.21.51a83.67,83.67,0,0,0-24.84,21.1c-1.45,1.82-1.56,2.91.73,4.19a117.41,117.41,0,0,1,11.78,7.38c2.5,1.81,3.71.91,5.13-1.15A120.2,120.2,0,0,1,75,64.64,5,5,0,0,0,77,61.51Zm88,34.36c0,2.16,0,4.32,0,6.48,0,1.29.2,2.36,1.71,2.52,2.93.32,6.29,1.74,8.66,0,1.82-1.36,0-4.31-.24-6.56-.06-.66-.13-1.32-.25-2a67.55,67.55,0,0,0-13.07-29.72c-.91-1.17-1.84-3-3.45-2-1.77,1.09.32,2.26.76,3.28A71.34,71.34,0,0,1,165,95.87ZM125.36,43c-13.68-4.34-27.3-3.91-40.83.6-5.58,1.86-5.38,1.88-2.59,7,2,3.63,3.68,4.84,7.82,2.29A67.1,67.1,0,0,1,125.36,43ZM42.41,172.55c-3.93-11.86-6.64-23.63-5.58-36,.61-7.21-5.31-3.63-8.09-4.38-3.85-1-2.92,2.67-2.62,4.67a73.08,73.08,0,0,0,8.61,25.26C36.86,165.88,38.88,169.74,42.41,172.55Zm43.69,69.6c9.67,0,9.42,0,9.76-8.11.17-4.19-1.3-5.55-5.26-5.44a36.26,36.26,0,0,1-8.9-.62c-4.39-1-5,.88-4.91,4.66C77,242.15,76.82,242.15,86.1,242.15ZM73.3,193.72c1.76.78,3.1,1.6,4.8,1.77a125.18,125.18,0,0,0,40-2.43c4.79-1.07,4.68-2.74,2.36-6a15.52,15.52,0,0,1-1.6-2.52c-1-2.18-2.23-2.4-4.23-1.07C102.19,191.72,88.29,194.33,73.3,193.72Z" transform="translate(-24.22 -24.3)"/><path class="cls-2" d="M188,108.24c-.54-26.21-14.86-51.8-43.56-69.15-3.67-2.22-6.83-4.45-5.05-9.42,2-5.56,6.49-6.9,12.1-3.55,25.24,15.09,41.77,36.67,48.32,65.51,9.71,42.78-7.34,90.64-44.22,115.48C136.43,220,115.26,224.83,92.15,222.8c-19.81-1.75-37.81-8.45-55.22-17.39-5.38-2.77-6.6-6-4.08-10.79s5.07-5.2,10.71-2.22c17.82,9.41,36.33,16.25,56.89,16.33,31.75.14,55.47-14,72.28-40.33C183,152.34,188,134.6,188,108.24Z" transform="translate(-24.22 -24.3)"/><path class="cls-2" d="M87.33,267.06c-17.49,0-35,0-52.47,0-9.22,0-13.37-7.56-8.73-15.69,1.3-2.26,3.23-3.09,5.8-3.1q54.48-.25,109-.56c5.08,0,7.69,3.63,7.55,10.09-.13,6.06-2.42,8.77-7.62,8.78q-26.75,0-53.49,0Z" transform="translate(-24.22 -24.3)"/><path class="cls-2" d="M144.83,53.25c8.14,7.43,11.23,16.38,11.94,26.27a86.23,86.23,0,0,1-.92,19.9c-.45,2.78-1.41,3.25-4,2.47A134.91,134.91,0,0,1,125.72,91.1c-1.25-.69-3.39-1.09-1.92-3.49C130.75,76.31,137.66,65,144.83,53.25Z" transform="translate(-24.22 -24.3)"/><path class="cls-2" d="M102.61,124.27l2,1.23c9.72,6.05,19.35,12.26,29.21,18.09,3,1.79,2.44,3.31.87,5.38a188.63,188.63,0,0,1-13.49,16c-2,2.15-3.11,1.94-5.08-.2a117.33,117.33,0,0,0-22.7-19.36C90.67,143.63,90,142,92,139.12c2.85-4.08,5.32-8.42,7.93-12.66C100.57,125.47,101.08,124.39,102.61,124.27Z" transform="translate(-24.22 -24.3)"/><path class="cls-2" d="M74.64,189.51c-4-.15-8.79.49-10.82-2.59-1.35-2,2.51-5.29,4.1-7.94,4.85-8.11,10-16,14.8-24.19,1.61-2.74,2.77-3.24,5.47-1.25a145.21,145.21,0,0,1,20.58,18c1.2,1.29,2.8,2.45.28,4.22C98.61,183.13,87.7,189.21,74.64,189.51Z" transform="translate(-24.22 -24.3)"/><path class="cls-2" d="M152,114.56a116,116,0,0,1-9.32,21.26c-.85,1.47-2.11.3-3-.26-10.2-6.26-20.36-12.58-30.58-18.81-1.69-1-1.88-2-.85-3.62,2.77-4.35,5.52-8.71,8.11-13.16,1-1.73,2-1.87,3.59-.94a139.58,139.58,0,0,0,30.22,12.72C151.11,112,152.65,112.11,152,114.56Z" transform="translate(-24.22 -24.3)"/><path class="cls-2" d="M92.79,119.42c-.23.38-.64,1.08-1.07,1.77-2.87,4.67-5.85,9.27-8.57,14-1.17,2.05-2.14,2.41-4.28,1.26a142.3,142.3,0,0,0-26.2-10.67c-2.06-.63-3.2-1-2.16-3.62a174.5,174.5,0,0,1,9.13-20.43c1-1.88,1.83-3,4.14-1.52,9.13,5.75,18.33,11.38,27.53,17C92,117.71,92.8,118,92.79,119.42Z" transform="translate(-24.22 -24.3)"/><path class="cls-2" d="M45.05,151.17c.32-3.63.61-8.1,1.14-12.55.33-2.79,1.24-4.39,4.85-3.11a205.53,205.53,0,0,1,22.05,9c2.37,1.16,3.2,2.21,1.59,4.76q-9.17,14.49-18,29.17c-1.68,2.79-2.65,2.65-4.41.07C46.78,170.45,45.35,161.41,45.05,151.17Z" transform="translate(-24.22 -24.3)"/><path class="cls-2" d="M108.77,93.5c-1.16,1.91-2.36,4.09-3.76,6.14-2.23,3.25-3.3,8.55-6.72,9.37s-6.81-3.34-10.17-5.39c-6.23-3.8-12.4-7.7-18.67-11.43-2.39-1.43-2.81-2.63-.94-5a184.79,184.79,0,0,1,13-15.12c1.34-1.36,2.39-2.15,4-.27C91.81,79.15,99.26,85.25,107,91,107.78,91.6,108.76,92,108.77,93.5Z" transform="translate(-24.22 -24.3)"/><path class="cls-2" d="M127.82,47.75l1,0c7.49.32,7.59.54,3.77,6.74-5.28,8.61-10.67,17.16-15.7,25.91-1.85,3.22-3.25,3.24-6,1.1A162.94,162.94,0,0,1,93.52,65.93c-1.34-1.4-2.44-2.43-.25-4.34C101.37,54.56,117.75,47.85,127.82,47.75Z" transform="translate(-24.22 -24.3)"/><path class="cls-2" d="M35.46,122.46c-10.61-.83-10.69-.84-9.56-10.78a80.91,80.91,0,0,1,7.74-25.56c1.18-2.5,2.24-3.67,5.07-1.61,4.26,3.11,10.88,4.88,12.71,8.93s-3.9,8.84-5.63,13.63c-1.34,3.74-3.22,7.32-4.3,11.12C40.46,121.78,39.09,124,35.46,122.46Z" transform="translate(-24.22 -24.3)"/><path class="cls-2" d="M133.35,187.4c-1.43,0-1.71-1.09-2.23-1.88-6.4-9.7-6.3-9.61,1.56-18.46a164.66,164.66,0,0,0,10.48-13.33c1.56-2.17,2.76-2.77,5.11-1.17,3.85,2.6,7.88,4.94,11.83,7.39,1.58,1,2.55,1.87,1,3.89a84,84,0,0,1-26.55,23.06A10.64,10.64,0,0,1,133.35,187.4Z" transform="translate(-24.22 -24.3)"/><path class="cls-2" d="M165.18,114.9c.9.13,1.72.28,2.55.36,9.93,1,10.14,1,8.91,10.89a80.3,80.3,0,0,1-7.35,24.21c-.76,1.62-1.56,2.85-3.76,1.36q-6.18-4.22-12.69-7.91c-2.27-1.29-1.93-2.7-.92-4.46a132.92,132.92,0,0,0,9.5-21.87C162.14,115.44,162.89,114.15,165.18,114.9Z" transform="translate(-24.22 -24.3)"/><path class="cls-2" d="M77,61.51a5,5,0,0,1-2,3.13A120.2,120.2,0,0,0,60.3,82.14c-1.42,2.06-2.63,3-5.13,1.15a117.41,117.41,0,0,0-11.78-7.38c-2.29-1.28-2.18-2.37-.73-4.19A83.67,83.67,0,0,1,67.5,50.62c.65-.36,1.68-1.3,2.21-.51C72.28,53.91,74.65,57.85,77,61.51Z" transform="translate(-24.22 -24.3)"/><path class="cls-2" d="M165,95.87a71.34,71.34,0,0,0-5.89-28c-.44-1-2.53-2.19-.76-3.28,1.61-1,2.54.83,3.45,2A67.55,67.55,0,0,1,174.86,96.3c.12.65.19,1.31.25,2,.22,2.25,2.06,5.2.24,6.56-2.37,1.78-5.73.36-8.66,0-1.51-.16-1.74-1.23-1.71-2.52C165,100.19,165,98,165,95.87Z" transform="translate(-24.22 -24.3)"/><path class="cls-2" d="M125.36,43a67.1,67.1,0,0,0-35.6,9.93c-4.14,2.55-5.85,1.34-7.82-2.29-2.79-5.16-3-5.18,2.59-7C98.06,39.07,111.68,38.64,125.36,43Z" transform="translate(-24.22 -24.3)"/><path class="cls-2" d="M42.41,172.55c-3.53-2.81-5.55-6.67-7.68-10.46a73.08,73.08,0,0,1-8.61-25.26c-.3-2-1.23-5.72,2.62-4.67,2.78.75,8.7-2.83,8.09,4.38C35.77,148.92,38.48,160.69,42.41,172.55Z" transform="translate(-24.22 -24.3)"/><path class="cls-2" d="M86.1,242.15c-9.28,0-9.13,0-9.31-9.51-.08-3.78.52-5.66,4.91-4.66a36.26,36.26,0,0,0,8.9.62c4-.11,5.43,1.25,5.26,5.44C95.52,242.13,95.77,242.14,86.1,242.15Z" transform="translate(-24.22 -24.3)"/><path class="cls-2" d="M73.3,193.72c15,.61,28.89-2,41.34-10.23,2-1.33,3.23-1.11,4.23,1.07a15.52,15.52,0,0,0,1.6,2.52c2.32,3.24,2.43,4.91-2.36,6a125.18,125.18,0,0,1-40,2.43C76.4,195.32,75.06,194.5,73.3,193.72Z" transform="translate(-24.22 -24.3)"/></svg>